<!DOCTYPE svg PUBLIC "-//W3C//DTD SVG 1.1//EN" "http://www.w3.org/Graphics/SVG/1.1/DTD/svg11.dtd"><svg version="1.1" xmlns="http://www.w3.org/2000/svg" height="2000" width="2000"><polygon points="18.75,6.0 56.25,6.0 75.0,37.5, 56.25,69.0, 18.75,69.0, 0.0,37.5" fill="#960096" transform="translate(0.0 220.5)" stroke="black" stroke-width="0"/><polygon points="18.75,6.0 56.25,6.0 75.0,37.5, 56.25,69.0, 18.75,69.0, 0.0,37.5" fill="#96008a" transform="translate(0.0 283.5)" stroke="black" stroke-width="0"/><polygon points="18.75,6.0 56.25,6.0 75.0,37.5, 56.25,69.0, 18.75,69.0, 0.0,37.5" fill="#960e96" transform="translate(0.0 346.5)" stroke="black" stroke-width="0"/><polygon points="18.75,6.0 56.25,6.0 75.0,37.5, 56.25,69.0, 18.75,69.0, 0.0,37.5" fill="#880096" transform="translate(0.0 409.5)" stroke="black" stroke-width="0"/><polygon points="18.75,6.0 56.25,6.0 75.0,37.5, 56.25,69.0, 18.75,69.0, 0.0,37.5" fill="#880096" transform="translate(0.0 472.5)" stroke="black" stroke-width="0"/><polygon points="18.75,6.0 56.25,6.0 75.0,37.5, 56.25,69.0, 18.75,69.0, 0.0,37.5" fill="#96009f" transform="translate(0.0 535.5)" stroke="black" stroke-width="0"/><polygon points="18.75,6.0 56.25,6.0 75.0,37.5, 56.25,69.0, 18.75,69.0, 0.0,37.5" fill="#960b96" transform="translate(0.0 598.5)" stroke="black" stroke-width="0"/><polygon points="18.75,6.0 56.25,6.0 75.0,37.5, 56.25,69.0, 18.75,69.0, 0.0,37.5" fill="#960e96" transform="translate(0.0 661.5)" stroke="black" stroke-width="0"/><polygon points="18.75,6.0 56.25,6.0 75.0,37.5, 56.25,69.0, 18.75,69.0, 0.0,37.5" fill="#960096" transform="translate(56.25 189.0)" stroke="black" stroke-width="0"/><polygon points="18.75,6.0 56.25,6.0 75.0,37.5, 56.25,69.0, 18.75,69.0, 0.0,37.5" fill="#9600a6" transform="translate(56.25 252.0)" stroke="black" stroke-width="0"/><circle cx="37.5" cy="37.5" r="7.5" fill="transparent" transform="translate(56.25 252.0)" stroke="#ffffff" stroke-width="3.75"/><polygon points="18.75,6.0 56.25,6.0 75.0,37.5, 56.25,69.0, 18.75,69.0, 0.0,37.5" fill="#960196" transform="translate(56.25 315.0)" stroke="black" stroke-width="0"/><polygon points="18.75,6.0 56.25,6.0 75.0,37.5, 56.25,69.0, 18.75,69.0, 0.0,37.5" fill="#960b96" transform="translate(56.25 378.0)" stroke="black" stroke-width="0"/><polygon points="18.75,6.0 56.25,6.0 75.0,37.5, 56.25,69.0, 18.75,69.0, 0.0,37.5" fill="#950096" transform="translate(56.25 441.0)" stroke="black" stroke-width="0"/><circle cx="37.5" cy="37.5" r="7.5" fill="transparent" transform="translate(56.25 441.0)" stroke="#ffffff" stroke-width="3.75"/><polygon points="18.75,6.0 56.25,6.0 75.0,37.5, 56.25,69.0, 18.75,69.0, 0.0,37.5" fill="#a00096" transform="translate(56.25 504.0)" stroke="black" stroke-width="0"/><polygon points="18.75,6.0 56.25,6.0 75.0,37.5, 56.25,69.0, 18.75,69.0, 0.0,37.5" fill="#a60096" transform="translate(56.25 567.0)" stroke="black" stroke-width="0"/><circle cx="37.5" cy="37.5" r="7.5" fill="transparent" transform="translate(56.25 567.0)" stroke="#ffffff" stroke-width="3.75"/><polygon points="18.75,6.0 56.25,6.0 75.0,37.5, 56.25,69.0, 18.75,69.0, 0.0,37.5" fill="#960a96" transform="translate(56.25 630.0)" stroke="black" stroke-width="0"/><polygon points="18.75,6.0 56.25,6.0 75.0,37.5, 56.25,69.0, 18.75,69.0, 0.0,37.5" fill="#960496" transform="translate(56.25 693.0)" stroke="black" stroke-width="0"/><polygon points="18.75,6.0 56.25,6.0 75.0,37.5, 56.25,69.0, 18.75,69.0, 0.0,37.5" fill="#960396" transform="translate(112.5 157.5)" stroke="black" stroke-width="0"/><polygon points="18.75,6.0 56.25,6.0 75.0,37.5, 56.25,69.0, 18.75,69.0, 0.0,37.5" fill="#960296" transform="translate(112.5 220.5)" stroke="black" stroke-width="0"/><polygon points="18.75,6.0 56.25,6.0 75.0,37.5, 56.25,69.0, 18.75,69.0, 0.0,37.5" fill="#960d96" transform="translate(112.5 283.5)" stroke="black" stroke-width="0"/><polygon points="18.75,6.0 56.25,6.0 75.0,37.5, 56.25,69.0, 18.75,69.0, 0.0,37.5" fill="#9f0096" transform="translate(112.5 346.5)" stroke="black" stroke-width="0"/><polygon points="18.75,6.0 56.25,6.0 75.0,37.5, 56.25,69.0, 18.75,69.0, 0.0,37.5" fill="#9600a6" transform="translate(112.5 409.5)" stroke="black" stroke-width="0"/><polygon points="18.75,6.0 56.25,6.0 75.0,37.5, 56.25,69.0, 18.75,69.0, 0.0,37.5" fill="#960796" transform="translate(112.5 472.5)" stroke="black" stroke-width="0"/><polygon points="18.75,6.0 56.25,6.0 75.0,37.5, 56.25,69.0, 18.75,69.0, 0.0,37.5" fill="#920096" transform="translate(112.5 535.5)" stroke="black" stroke-width="0"/><polygon points="18.75,6.0 56.25,6.0 75.0,37.5, 56.25,69.0, 18.75,69.0, 0.0,37.5" fill="#9600a4" transform="translate(112.5 598.5)" stroke="black" stroke-width="0"/><polygon points="18.75,6.0 56.25,6.0 75.0,37.5, 56.25,69.0, 18.75,69.0, 0.0,37.5" fill="#960296" transform="translate(112.5 661.5)" stroke="black" stroke-width="0"/><polygon points="18.75,6.0 56.25,6.0 75.0,37.5, 56.25,69.0, 18.75,69.0, 0.0,37.5" fill="#950096" transform="translate(112.5 724.5)" stroke="black" stroke-width="0"/><polygon points="18.75,6.0 56.25,6.0 75.0,37.5, 56.25,69.0, 18.75,69.0, 0.0,37.5" fill="#96008a" transform="translate(168.75 126.0)" stroke="black" stroke-width="0"/><polygon points="18.75,6.0 56.25,6.0 75.0,37.5, 56.25,69.0, 18.75,69.0, 0.0,37.5" fill="#890096" transform="translate(168.75 189.0)" stroke="black" stroke-width="0"/><polygon points="18.75,6.0 56.25,6.0 75.0,37.5, 56.25,69.0, 18.75,69.0, 0.0,37.5" fill="#96008f" transform="translate(168.75 252.0)" stroke="black" stroke-width="0"/><polygon points="18.75,6.0 56.25,6.0 75.0,37.5, 56.25,69.0, 18.75,69.0, 0.0,37.5" fill="#960396" transform="translate(168.75 315.0)" stroke="black" stroke-width="0"/><circle cx="37.5" cy="37.5" r="7.5" fill="transparent" transform="translate(168.75 315.0)" stroke="#ffffff" stroke-width="3.75"/><polygon points="18.75,6.0 56.25,6.0 75.0,37.5, 56.25,69.0, 18.75,69.0, 0.0,37.5" fill="#9f0096" transform="translate(168.75 378.0)" stroke="black" stroke-width="0"/><polygon points="18.75,6.0 56.25,6.0 75.0,37.5, 56.25,69.0, 18.75,69.0, 0.0,37.5" fill="#880096" transform="translate(168.75 441.0)" stroke="black" stroke-width="0"/><polygon points="18.75,6.0 56.25,6.0 75.0,37.5, 56.25,69.0, 18.75,69.0, 0.0,37.5" fill="#860096" transform="translate(168.75 504.0)" stroke="black" stroke-width="0"/><polygon points="18.75,6.0 56.25,6.0 75.0,37.5, 56.25,69.0, 18.75,69.0, 0.0,37.5" fill="#96009b" transform="translate(168.75 567.0)" stroke="black" stroke-width="0"/><polygon points="18.75,6.0 56.25,6.0 75.0,37.5, 56.25,69.0, 18.75,69.0, 0.0,37.5" fill="#880096" transform="translate(168.75 630.0)" stroke="black" stroke-width="0"/><polygon points="18.75,6.0 56.25,6.0 75.0,37.5, 56.25,69.0, 18.75,69.0, 0.0,37.5" fill="#980096" transform="translate(168.75 693.0)" stroke="black" stroke-width="0"/><polygon points="18.75,6.0 56.25,6.0 75.0,37.5, 56.25,69.0, 18.75,69.0, 0.0,37.5" fill="#961096" transform="translate(168.75 756.0)" stroke="black" stroke-width="0"/><polygon points="18.75,6.0 56.25,6.0 75.0,37.5, 56.25,69.0, 18.75,69.0, 0.0,37.5" fill="#960496" transform="translate(225.0 94.5)" stroke="black" stroke-width="0"/><polygon points="18.75,6.0 56.25,6.0 75.0,37.5, 56.25,69.0, 18.75,69.0, 0.0,37.5" fill="#96009b" transform="translate(225.0 157.5)" stroke="black" stroke-width="0"/><polygon points="18.75,6.0 56.25,6.0 75.0,37.5, 56.25,69.0, 18.75,69.0, 0.0,37.5" fill="#960099" transform="translate(225.0 220.5)" stroke="black" stroke-width="0"/><polygon points="18.75,6.0 56.25,6.0 75.0,37.5, 56.25,69.0, 18.75,69.0, 0.0,37.5" fill="#8d0096" transform="translate(225.0 283.5)" stroke="black" stroke-width="0"/><polygon points="18.75,6.0 56.25,6.0 75.0,37.5, 56.25,69.0, 18.75,69.0, 0.0,37.5" fill="#96008a" transform="translate(225.0 346.5)" stroke="black" stroke-width="0"/><polygon points="18.75,6.0 56.25,6.0 75.0,37.5, 56.25,69.0, 18.75,69.0, 0.0,37.5" fill="#960f96" transform="translate(225.0 409.5)" stroke="black" stroke-width="0"/><circle cx="37.5" cy="37.5" r="7.5" fill="transparent" transform="translate(225.0 409.5)" stroke="#ffffff" stroke-width="3.75"/><polygon points="18.75,6.0 56.25,6.0 75.0,37.5, 56.25,69.0, 18.75,69.0, 0.0,37.5" fill="#9a0096" transform="translate(225.0 472.5)" stroke="black" stroke-width="0"/><circle cx="37.5" cy="37.5" r="7.5" fill="transparent" transform="translate(225.0 472.5)" stroke="#ffffff" stroke-width="3.75"/><polygon points="18.75,6.0 56.25,6.0 75.0,37.5, 56.25,69.0, 18.75,69.0, 0.0,37.5" fill="#960896" transform="translate(225.0 535.5)" stroke="black" stroke-width="0"/><polygon points="18.75,6.0 56.25,6.0 75.0,37.5, 56.25,69.0, 18.75,69.0, 0.0,37.5" fill="#9600a3" transform="translate(225.0 598.5)" stroke="black" stroke-width="0"/><polygon points="18.75,6.0 56.25,6.0 75.0,37.5, 56.25,69.0, 18.75,69.0, 0.0,37.5" fill="#960086" transform="translate(225.0 661.5)" stroke="black" stroke-width="0"/><polygon points="18.75,6.0 56.25,6.0 75.0,37.5, 56.25,69.0, 18.75,69.0, 0.0,37.5" fill="#960f96" transform="translate(225.0 724.5)" stroke="black" stroke-width="0"/><circle cx="37.5" cy="37.5" r="7.5" fill="transparent" transform="translate(225.0 724.5)" stroke="#ffffff" stroke-width="3.75"/><polygon points="18.75,6.0 56.25,6.0 75.0,37.5, 56.25,69.0, 18.75,69.0, 0.0,37.5" fill="#96008b" transform="translate(225.0 787.5)" stroke="black" stroke-width="0"/><polygon points="18.75,6.0 56.25,6.0 75.0,37.5, 56.25,69.0, 18.75,69.0, 0.0,37.5" fill="#960796" transform="translate(281.25 63.0)" stroke="black" stroke-width="0"/><polygon points="18.75,6.0 56.25,6.0 75.0,37.5, 56.25,69.0, 18.75,69.0, 0.0,37.5" fill="#96009f" transform="translate(281.25 126.0)" stroke="black" stroke-width="0"/><polygon points="18.75,6.0 56.25,6.0 75.0,37.5, 56.25,69.0, 18.75,69.0, 0.0,37.5" fill="#8c0096" transform="translate(281.25 189.0)" stroke="black" stroke-width="0"/><circle cx="37.5" cy="37.5" r="7.5" fill="transparent" transform="translate(281.25 189.0)" stroke="#ffffff" stroke-width="3.75"/><polygon points="18.75,6.0 56.25,6.0 75.0,37.5, 56.25,69.0, 18.75,69.0, 0.0,37.5" fill="#a50096" transform="translate(281.25 252.0)" stroke="black" stroke-width="0"/><circle cx="37.5" cy="37.5" r="7.5" fill="transparent" transform="translate(281.25 252.0)" stroke="#ffffff" stroke-width="3.75"/><polygon points="18.75,6.0 56.25,6.0 75.0,37.5, 56.25,69.0, 18.75,69.0, 0.0,37.5" fill="#9600a2" transform="translate(281.25 315.0)" stroke="black" stroke-width="0"/><circle cx="37.5" cy="37.5" r="7.5" fill="transparent" transform="translate(281.25 315.0)" stroke="#ffffff" stroke-width="3.75"/><polygon points="18.75,6.0 56.25,6.0 75.0,37.5, 56.25,69.0, 18.75,69.0, 0.0,37.5" fill="#960097" transform="translate(281.25 378.0)" stroke="black" stroke-width="0"/><polygon points="18.75,6.0 56.25,6.0 75.0,37.5, 56.25,69.0, 18.75,69.0, 0.0,37.5" fill="#960092" transform="translate(281.25 441.0)" stroke="black" stroke-width="0"/><circle cx="37.5" cy="37.5" r="7.5" fill="transparent" transform="translate(281.25 441.0)" stroke="#ffffff" stroke-width="3.75"/><polygon points="18.75,6.0 56.25,6.0 75.0,37.5, 56.25,69.0, 18.75,69.0, 0.0,37.5" fill="#a60096" transform="translate(281.25 504.0)" stroke="black" stroke-width="0"/><polygon points="18.75,6.0 56.25,6.0 75.0,37.5, 56.25,69.0, 18.75,69.0, 0.0,37.5" fill="#960093" transform="translate(281.25 567.0)" stroke="black" stroke-width="0"/><polygon points="18.75,6.0 56.25,6.0 75.0,37.5, 56.25,69.0, 18.75,69.0, 0.0,37.5" fill="#960093" transform="translate(281.25 630.0)" stroke="black" stroke-width="0"/><polygon points="18.75,6.0 56.25,6.0 75.0,37.5, 56.25,69.0, 18.75,69.0, 0.0,37.5" fill="#870096" transform="translate(281.25 693.0)" stroke="black" stroke-width="0"/><polygon points="18.75,6.0 56.25,6.0 75.0,37.5, 56.25,69.0, 18.75,69.0, 0.0,37.5" fill="#96008e" transform="translate(281.25 756.0)" stroke="black" stroke-width="0"/><polygon points="18.75,6.0 56.25,6.0 75.0,37.5, 56.25,69.0, 18.75,69.0, 0.0,37.5" fill="#990096" transform="translate(281.25 819.0)" stroke="black" stroke-width="0"/><polygon points="18.75,6.0 56.25,6.0 75.0,37.5, 56.25,69.0, 18.75,69.0, 0.0,37.5" fill="#960089" transform="translate(337.5 31.5)" stroke="black" stroke-width="0"/><polygon points="18.75,6.0 56.25,6.0 75.0,37.5, 56.25,69.0, 18.75,69.0, 0.0,37.5" fill="#960e96" transform="translate(337.5 94.5)" stroke="black" stroke-width="0"/><polygon points="18.75,6.0 56.25,6.0 75.0,37.5, 56.25,69.0, 18.75,69.0, 0.0,37.5" fill="#960093" transform="translate(337.5 157.5)" stroke="black" stroke-width="0"/><polygon points="18.75,6.0 56.25,6.0 75.0,37.5, 56.25,69.0, 18.75,69.0, 0.0,37.5" fill="#960e96" transform="translate(337.5 220.5)" stroke="black" stroke-width="0"/><polygon points="18.75,6.0 56.25,6.0 75.0,37.5, 56.25,69.0, 18.75,69.0, 0.0,37.5" fill="#960c96" transform="translate(337.5 283.5)" stroke="black" stroke-width="0"/><polygon points="18.75,6.0 56.25,6.0 75.0,37.5, 56.25,69.0, 18.75,69.0, 0.0,37.5" fill="#990096" transform="translate(337.5 346.5)" stroke="black" stroke-width="0"/><polygon points="18.75,6.0 56.25,6.0 75.0,37.5, 56.25,69.0, 18.75,69.0, 0.0,37.5" fill="#960d96" transform="translate(337.5 409.5)" stroke="black" stroke-width="0"/><circle cx="37.5" cy="37.5" r="7.5" fill="transparent" transform="translate(337.5 409.5)" stroke="#ffffff" stroke-width="3.75"/><polygon points="18.75,6.0 56.25,6.0 75.0,37.5, 56.25,69.0, 18.75,69.0, 0.0,37.5" fill="#8f0096" transform="translate(337.5 472.5)" stroke="black" stroke-width="0"/><polygon points="18.75,6.0 56.25,6.0 75.0,37.5, 56.25,69.0, 18.75,69.0, 0.0,37.5" fill="#960496" transform="translate(337.5 535.5)" stroke="black" stroke-width="0"/><polygon points="18.75,6.0 56.25,6.0 75.0,37.5, 56.25,69.0, 18.75,69.0, 0.0,37.5" fill="#960696" transform="translate(337.5 598.5)" stroke="black" stroke-width="0"/><polygon points="18.75,6.0 56.25,6.0 75.0,37.5, 56.25,69.0, 18.75,69.0, 0.0,37.5" fill="#920096" transform="translate(337.5 661.5)" stroke="black" stroke-width="0"/><circle cx="37.5" cy="37.5" r="7.5" fill="transparent" transform="translate(337.5 661.5)" stroke="#ffffff" stroke-width="3.75"/><polygon points="18.75,6.0 56.25,6.0 75.0,37.5, 56.25,69.0, 18.75,69.0, 0.0,37.5" fill="#960f96" transform="translate(337.5 724.5)" stroke="black" stroke-width="0"/><polygon points="18.75,6.0 56.25,6.0 75.0,37.5, 56.25,69.0, 18.75,69.0, 0.0,37.5" fill="#961096" transform="translate(337.5 787.5)" stroke="black" stroke-width="0"/><circle cx="37.5" cy="37.5" r="7.5" fill="transparent" transform="translate(337.5 787.5)" stroke="#ffffff" stroke-width="3.75"/><polygon points="18.75,6.0 56.25,6.0 75.0,37.5, 56.25,69.0, 18.75,69.0, 0.0,37.5" fill="#961096" transform="translate(337.5 850.5)" stroke="black" stroke-width="0"/><polygon points="18.75,6.0 56.25,6.0 75.0,37.5, 56.25,69.0, 18.75,69.0, 0.0,37.5" fill="#960396" transform="translate(393.75 0.0)" stroke="black" stroke-width="0"/><polygon points="18.75,6.0 56.25,6.0 75.0,37.5, 56.25,69.0, 18.75,69.0, 0.0,37.5" fill="#960094" transform="translate(393.75 63.0)" stroke="black" stroke-width="0"/><polygon points="18.75,6.0 56.25,6.0 75.0,37.5, 56.25,69.0, 18.75,69.0, 0.0,37.5" fill="#960796" transform="translate(393.75 126.0)" stroke="black" stroke-width="0"/><polygon points="18.75,6.0 56.25,6.0 75.0,37.5, 56.25,69.0, 18.75,69.0, 0.0,37.5" fill="#96008d" transform="translate(393.75 189.0)" stroke="black" stroke-width="0"/><circle cx="37.5" cy="37.5" r="7.5" fill="transparent" transform="translate(393.75 189.0)" stroke="#ffffff" stroke-width="3.75"/><polygon points="18.75,6.0 56.25,6.0 75.0,37.5, 56.25,69.0, 18.75,69.0, 0.0,37.5" fill="#960596" transform="translate(393.75 252.0)" stroke="black" stroke-width="0"/><polygon points="18.75,6.0 56.25,6.0 75.0,37.5, 56.25,69.0, 18.75,69.0, 0.0,37.5" fill="#960596" transform="translate(393.75 315.0)" stroke="black" stroke-width="0"/><circle cx="37.5" cy="37.5" r="7.5" fill="transparent" transform="translate(393.75 315.0)" stroke="#ffffff" stroke-width="3.75"/><polygon points="18.75,6.0 56.25,6.0 75.0,37.5, 56.25,69.0, 18.75,69.0, 0.0,37.5" fill="#960596" transform="translate(393.75 378.0)" stroke="black" stroke-width="0"/><circle cx="37.5" cy="37.5" r="7.5" fill="transparent" transform="translate(393.75 378.0)" stroke="#ffffff" stroke-width="3.75"/><polygon points="18.75,6.0 56.25,6.0 75.0,37.5, 56.25,69.0, 18.75,69.0, 0.0,37.5" fill="#960093" transform="translate(393.75 441.0)" stroke="black" stroke-width="0"/><polygon points="18.75,6.0 56.25,6.0 75.0,37.5, 56.25,69.0, 18.75,69.0, 0.0,37.5" fill="#9c0096" transform="translate(393.75 504.0)" stroke="black" stroke-width="0"/><circle cx="37.5" cy="37.5" r="7.5" fill="transparent" transform="translate(393.75 504.0)" stroke="#ffffff" stroke-width="3.75"/><polygon points="18.75,6.0 56.25,6.0 75.0,37.5, 56.25,69.0, 18.75,69.0, 0.0,37.5" fill="#960696" transform="translate(393.75 567.0)" stroke="black" stroke-width="0"/><polygon points="18.75,6.0 56.25,6.0 75.0,37.5, 56.25,69.0, 18.75,69.0, 0.0,37.5" fill="#a60096" transform="translate(393.75 630.0)" stroke="black" stroke-width="0"/><polygon points="18.75,6.0 56.25,6.0 75.0,37.5, 56.25,69.0, 18.75,69.0, 0.0,37.5" fill="#96009e" transform="translate(393.75 693.0)" stroke="black" stroke-width="0"/><circle cx="37.5" cy="37.5" r="7.5" fill="transparent" transform="translate(393.75 693.0)" stroke="#ffffff" stroke-width="3.75"/><polygon points="18.75,6.0 56.25,6.0 75.0,37.5, 56.25,69.0, 18.75,69.0, 0.0,37.5" fill="#96008f" transform="translate(393.75 756.0)" stroke="black" stroke-width="0"/><circle cx="37.5" cy="37.5" r="7.5" fill="transparent" transform="translate(393.75 756.0)" stroke="#ffffff" stroke-width="3.75"/><polygon points="18.75,6.0 56.25,6.0 75.0,37.5, 56.25,69.0, 18.75,69.0, 0.0,37.5" fill="#9f0096" transform="translate(393.75 819.0)" stroke="black" stroke-width="0"/><polygon points="18.75,6.0 56.25,6.0 75.0,37.5, 56.25,69.0, 18.75,69.0, 0.0,37.5" fill="#960096" transform="translate(393.75 882.0)" stroke="black" stroke-width="0"/><polygon points="18.75,6.0 56.25,6.0 75.0,37.5, 56.25,69.0, 18.75,69.0, 0.0,37.5" fill="#880096" transform="translate(450.0 31.5)" stroke="black" stroke-width="0"/><polygon points="18.75,6.0 56.25,6.0 75.0,37.5, 56.25,69.0, 18.75,69.0, 0.0,37.5" fill="#960096" transform="translate(450.0 94.5)" stroke="black" stroke-width="0"/><circle cx="37.5" cy="37.5" r="7.5" fill="transparent" transform="translate(450.0 94.5)" stroke="#ffffff" stroke-width="3.75"/><polygon points="18.75,6.0 56.25,6.0 75.0,37.5, 56.25,69.0, 18.75,69.0, 0.0,37.5" fill="#960087" transform="translate(450.0 157.5)" stroke="black" stroke-width="0"/><circle cx="37.5" cy="37.5" r="7.5" fill="transparent" transform="translate(450.0 157.5)" stroke="#ffffff" stroke-width="3.75"/><polygon points="18.75,6.0 56.25,6.0 75.0,37.5, 56.25,69.0, 18.75,69.0, 0.0,37.5" fill="#96009f" transform="translate(450.0 220.5)" stroke="black" stroke-width="0"/><polygon points="18.75,6.0 56.25,6.0 75.0,37.5, 56.25,69.0, 18.75,69.0, 0.0,37.5" fill="#960796" transform="translate(450.0 283.5)" stroke="black" stroke-width="0"/><polygon points="18.75,6.0 56.25,6.0 75.0,37.5, 56.25,69.0, 18.75,69.0, 0.0,37.5" fill="#96009c" transform="translate(450.0 346.5)" stroke="black" stroke-width="0"/><circle cx="37.5" cy="37.5" r="7.5" fill="transparent" transform="translate(450.0 346.5)" stroke="#ffffff" stroke-width="3.75"/><polygon points="18.75,6.0 56.25,6.0 75.0,37.5, 56.25,69.0, 18.75,69.0, 0.0,37.5" fill="#980096" transform="translate(450.0 409.5)" stroke="black" stroke-width="0"/><circle cx="37.5" cy="37.5" r="7.5" fill="transparent" transform="translate(450.0 409.5)" stroke="#ffffff" stroke-width="3.75"/><polygon points="18.75,6.0 56.25,6.0 75.0,37.5, 56.25,69.0, 18.75,69.0, 0.0,37.5" fill="#a00096" transform="translate(450.0 472.5)" stroke="black" stroke-width="0"/><circle cx="37.5" cy="37.5" r="7.5" fill="transparent" transform="translate(450.0 472.5)" stroke="#ffffff" stroke-width="3.75"/><polygon points="18.75,6.0 56.25,6.0 75.0,37.5, 56.25,69.0, 18.75,69.0, 0.0,37.5" fill="#960d96" transform="translate(450.0 535.5)" stroke="black" stroke-width="0"/><polygon points="18.75,6.0 56.25,6.0 75.0,37.5, 56.25,69.0, 18.75,69.0, 0.0,37.5" fill="#8d0096" transform="translate(450.0 598.5)" stroke="black" stroke-width="0"/><polygon points="18.75,6.0 56.25,6.0 75.0,37.5, 56.25,69.0, 18.75,69.0, 0.0,37.5" fill="#a30096" transform="translate(450.0 661.5)" stroke="black" stroke-width="0"/><polygon points="18.75,6.0 56.25,6.0 75.0,37.5, 56.25,69.0, 18.75,69.0, 0.0,37.5" fill="#8e0096" transform="translate(450.0 724.5)" stroke="black" stroke-width="0"/><circle cx="37.5" cy="37.5" r="7.5" fill="transparent" transform="translate(450.0 724.5)" stroke="#ffffff" stroke-width="3.75"/><polygon points="18.75,6.0 56.25,6.0 75.0,37.5, 56.25,69.0, 18.75,69.0, 0.0,37.5" fill="#96008c" transform="translate(450.0 787.5)" stroke="black" stroke-width="0"/><polygon points="18.75,6.0 56.25,6.0 75.0,37.5, 56.25,69.0, 18.75,69.0, 0.0,37.5" fill="#8e0096" transform="translate(450.0 850.5)" stroke="black" stroke-width="0"/><polygon points="18.75,6.0 56.25,6.0 75.0,37.5, 56.25,69.0, 18.75,69.0, 0.0,37.5" fill="#960b96" transform="translate(506.25 63.0)" stroke="black" stroke-width="0"/><polygon points="18.75,6.0 56.25,6.0 75.0,37.5, 56.25,69.0, 18.75,69.0, 0.0,37.5" fill="#960896" transform="translate(506.25 126.0)" stroke="black" stroke-width="0"/><polygon points="18.75,6.0 56.25,6.0 75.0,37.5, 56.25,69.0, 18.75,69.0, 0.0,37.5" fill="#960996" transform="translate(506.25 189.0)" stroke="black" stroke-width="0"/><polygon points="18.75,6.0 56.25,6.0 75.0,37.5, 56.25,69.0, 18.75,69.0, 0.0,37.5" fill="#9600a5" transform="translate(506.25 252.0)" stroke="black" stroke-width="0"/><circle cx="37.5" cy="37.5" r="7.5" fill="transparent" transform="translate(506.25 252.0)" stroke="#ffffff" stroke-width="3.75"/><polygon points="18.75,6.0 56.25,6.0 75.0,37.5, 56.25,69.0, 18.75,69.0, 0.0,37.5" fill="#960896" transform="translate(506.25 315.0)" stroke="black" stroke-width="0"/><polygon points="18.75,6.0 56.25,6.0 75.0,37.5, 56.25,69.0, 18.75,69.0, 0.0,37.5" fill="#960596" transform="translate(506.25 378.0)" stroke="black" stroke-width="0"/><polygon points="18.75,6.0 56.25,6.0 75.0,37.5, 56.25,69.0, 18.75,69.0, 0.0,37.5" fill="#960094" transform="translate(506.25 441.0)" stroke="black" stroke-width="0"/><polygon points="18.75,6.0 56.25,6.0 75.0,37.5, 56.25,69.0, 18.75,69.0, 0.0,37.5" fill="#960a96" transform="translate(506.25 504.0)" stroke="black" stroke-width="0"/><polygon points="18.75,6.0 56.25,6.0 75.0,37.5, 56.25,69.0, 18.75,69.0, 0.0,37.5" fill="#8c0096" transform="translate(506.25 567.0)" stroke="black" stroke-width="0"/><circle cx="37.5" cy="37.5" r="7.5" fill="transparent" transform="translate(506.25 567.0)" stroke="#ffffff" stroke-width="3.75"/><polygon points="18.75,6.0 56.25,6.0 75.0,37.5, 56.25,69.0, 18.75,69.0, 0.0,37.5" fill="#960796" transform="translate(506.25 630.0)" stroke="black" stroke-width="0"/><circle cx="37.5" cy="37.5" r="7.5" fill="transparent" transform="translate(506.25 630.0)" stroke="#ffffff" stroke-width="3.75"/><polygon points="18.75,6.0 56.25,6.0 75.0,37.5, 56.25,69.0, 18.75,69.0, 0.0,37.5" fill="#960696" transform="translate(506.25 693.0)" stroke="black" stroke-width="0"/><polygon points="18.75,6.0 56.25,6.0 75.0,37.5, 56.25,69.0, 18.75,69.0, 0.0,37.5" fill="#96009c" transform="translate(506.25 756.0)" stroke="black" stroke-width="0"/><polygon points="18.75,6.0 56.25,6.0 75.0,37.5, 56.25,69.0, 18.75,69.0, 0.0,37.5" fill="#96009d" transform="translate(506.25 819.0)" stroke="black" stroke-width="0"/><polygon points="18.75,6.0 56.25,6.0 75.0,37.5, 56.25,69.0, 18.75,69.0, 0.0,37.5" fill="#960b96" transform="translate(562.5 94.5)" stroke="black" stroke-width="0"/><polygon points="18.75,6.0 56.25,6.0 75.0,37.5, 56.25,69.0, 18.75,69.0, 0.0,37.5" fill="#960c96" transform="translate(562.5 157.5)" stroke="black" stroke-width="0"/><polygon points="18.75,6.0 56.25,6.0 75.0,37.5, 56.25,69.0, 18.75,69.0, 0.0,37.5" fill="#96008a" transform="translate(562.5 220.5)" stroke="black" stroke-width="0"/><polygon points="18.75,6.0 56.25,6.0 75.0,37.5, 56.25,69.0, 18.75,69.0, 0.0,37.5" fill="#960196" transform="translate(562.5 283.5)" stroke="black" stroke-width="0"/><polygon points="18.75,6.0 56.25,6.0 75.0,37.5, 56.25,69.0, 18.75,69.0, 0.0,37.5" fill="#960196" transform="translate(562.5 346.5)" stroke="black" stroke-width="0"/><polygon points="18.75,6.0 56.25,6.0 75.0,37.5, 56.25,69.0, 18.75,69.0, 0.0,37.5" fill="#960090" transform="translate(562.5 409.5)" stroke="black" stroke-width="0"/><circle cx="37.5" cy="37.5" r="7.5" fill="transparent" transform="translate(562.5 409.5)" stroke="#ffffff" stroke-width="3.75"/><polygon points="18.75,6.0 56.25,6.0 75.0,37.5, 56.25,69.0, 18.75,69.0, 0.0,37.5" fill="#960c96" transform="translate(562.5 472.5)" stroke="black" stroke-width="0"/><circle cx="37.5" cy="37.5" r="7.5" fill="transparent" transform="translate(562.5 472.5)" stroke="#ffffff" stroke-width="3.75"/><polygon points="18.75,6.0 56.25,6.0 75.0,37.5, 56.25,69.0, 18.75,69.0, 0.0,37.5" fill="#960496" transform="translate(562.5 535.5)" stroke="black" stroke-width="0"/><polygon points="18.75,6.0 56.25,6.0 75.0,37.5, 56.25,69.0, 18.75,69.0, 0.0,37.5" fill="#920096" transform="translate(562.5 598.5)" stroke="black" stroke-width="0"/><circle cx="37.5" cy="37.5" r="7.5" fill="transparent" transform="translate(562.5 598.5)" stroke="#ffffff" stroke-width="3.75"/><polygon points="18.75,6.0 56.25,6.0 75.0,37.5, 56.25,69.0, 18.75,69.0, 0.0,37.5" fill="#960d96" transform="translate(562.5 661.5)" stroke="black" stroke-width="0"/><polygon points="18.75,6.0 56.25,6.0 75.0,37.5, 56.25,69.0, 18.75,69.0, 0.0,37.5" fill="#960696" transform="translate(562.5 724.5)" stroke="black" stroke-width="0"/><circle cx="37.5" cy="37.5" r="7.5" fill="transparent" transform="translate(562.5 724.5)" stroke="#ffffff" stroke-width="3.75"/><polygon points="18.75,6.0 56.25,6.0 75.0,37.5, 56.25,69.0, 18.75,69.0, 0.0,37.5" fill="#9c0096" transform="translate(562.5 787.5)" stroke="black" stroke-width="0"/><polygon points="18.75,6.0 56.25,6.0 75.0,37.5, 56.25,69.0, 18.75,69.0, 0.0,37.5" fill="#870096" transform="translate(618.75 126.0)" stroke="black" stroke-width="0"/><polygon points="18.75,6.0 56.25,6.0 75.0,37.5, 56.25,69.0, 18.75,69.0, 0.0,37.5" fill="#96009c" transform="translate(618.75 189.0)" stroke="black" stroke-width="0"/><polygon points="18.75,6.0 56.25,6.0 75.0,37.5, 56.25,69.0, 18.75,69.0, 0.0,37.5" fill="#9600a4" transform="translate(618.75 252.0)" stroke="black" stroke-width="0"/><polygon points="18.75,6.0 56.25,6.0 75.0,37.5, 56.25,69.0, 18.75,69.0, 0.0,37.5" fill="#960996" transform="translate(618.75 315.0)" stroke="black" stroke-width="0"/><circle cx="37.5" cy="37.5" r="7.5" fill="transparent" transform="translate(618.75 315.0)" stroke="#ffffff" stroke-width="3.75"/><polygon points="18.75,6.0 56.25,6.0 75.0,37.5, 56.25,69.0, 18.75,69.0, 0.0,37.5" fill="#960496" transform="translate(618.75 378.0)" stroke="black" stroke-width="0"/><polygon points="18.75,6.0 56.25,6.0 75.0,37.5, 56.25,69.0, 18.75,69.0, 0.0,37.5" fill="#960496" transform="translate(618.75 441.0)" stroke="black" stroke-width="0"/><polygon points="18.75,6.0 56.25,6.0 75.0,37.5, 56.25,69.0, 18.75,69.0, 0.0,37.5" fill="#960095" transform="translate(618.75 504.0)" stroke="black" stroke-width="0"/><circle cx="37.5" cy="37.5" r="7.5" fill="transparent" transform="translate(618.75 504.0)" stroke="#ffffff" stroke-width="3.75"/><polygon points="18.75,6.0 56.25,6.0 75.0,37.5, 56.25,69.0, 18.75,69.0, 0.0,37.5" fill="#9600a4" transform="translate(618.75 567.0)" stroke="black" stroke-width="0"/><polygon points="18.75,6.0 56.25,6.0 75.0,37.5, 56.25,69.0, 18.75,69.0, 0.0,37.5" fill="#960096" transform="translate(618.75 630.0)" stroke="black" stroke-width="0"/><circle cx="37.5" cy="37.5" r="7.5" fill="transparent" transform="translate(618.75 630.0)" stroke="#ffffff" stroke-width="3.75"/><polygon points="18.75,6.0 56.25,6.0 75.0,37.5, 56.25,69.0, 18.75,69.0, 0.0,37.5" fill="#960091" transform="translate(618.75 693.0)" stroke="black" stroke-width="0"/><polygon points="18.75,6.0 56.25,6.0 75.0,37.5, 56.25,69.0, 18.75,69.0, 0.0,37.5" fill="#96008a" transform="translate(618.75 756.0)" stroke="black" stroke-width="0"/><polygon points="18.75,6.0 56.25,6.0 75.0,37.5, 56.25,69.0, 18.75,69.0, 0.0,37.5" fill="#8e0096" transform="translate(675.0 157.5)" stroke="black" stroke-width="0"/><polygon points="18.75,6.0 56.25,6.0 75.0,37.5, 56.25,69.0, 18.75,69.0, 0.0,37.5" fill="#960b96" transform="translate(675.0 220.5)" stroke="black" stroke-width="0"/><polygon points="18.75,6.0 56.25,6.0 75.0,37.5, 56.25,69.0, 18.75,69.0, 0.0,37.5" fill="#9600a3" transform="translate(675.0 283.5)" stroke="black" stroke-width="0"/><circle cx="37.5" cy="37.5" r="7.5" fill="transparent" transform="translate(675.0 283.5)" stroke="#ffffff" stroke-width="3.75"/><polygon points="18.75,6.0 56.25,6.0 75.0,37.5, 56.25,69.0, 18.75,69.0, 0.0,37.5" fill="#9b0096" transform="translate(675.0 346.5)" stroke="black" stroke-width="0"/><circle cx="37.5" cy="37.5" r="7.5" fill="transparent" transform="translate(675.0 346.5)" stroke="#ffffff" stroke-width="3.75"/><polygon points="18.75,6.0 56.25,6.0 75.0,37.5, 56.25,69.0, 18.75,69.0, 0.0,37.5" fill="#960596" transform="translate(675.0 409.5)" stroke="black" stroke-width="0"/><polygon points="18.75,6.0 56.25,6.0 75.0,37.5, 56.25,69.0, 18.75,69.0, 0.0,37.5" fill="#96008c" transform="translate(675.0 472.5)" stroke="black" stroke-width="0"/><polygon points="18.75,6.0 56.25,6.0 75.0,37.5, 56.25,69.0, 18.75,69.0, 0.0,37.5" fill="#960092" transform="translate(675.0 535.5)" stroke="black" stroke-width="0"/><circle cx="37.5" cy="37.5" r="7.5" fill="transparent" transform="translate(675.0 535.5)" stroke="#ffffff" stroke-width="3.75"/><polygon points="18.75,6.0 56.25,6.0 75.0,37.5, 56.25,69.0, 18.75,69.0, 0.0,37.5" fill="#960b96" transform="translate(675.0 598.5)" stroke="black" stroke-width="0"/><circle cx="37.5" cy="37.5" r="7.5" fill="transparent" transform="translate(675.0 598.5)" stroke="#ffffff" stroke-width="3.75"/><polygon points="18.75,6.0 56.25,6.0 75.0,37.5, 56.25,69.0, 18.75,69.0, 0.0,37.5" fill="#a20096" transform="translate(675.0 661.5)" stroke="black" stroke-width="0"/><polygon points="18.75,6.0 56.25,6.0 75.0,37.5, 56.25,69.0, 18.75,69.0, 0.0,37.5" fill="#960d96" transform="translate(675.0 724.5)" stroke="black" stroke-width="0"/><polygon points="18.75,6.0 56.25,6.0 75.0,37.5, 56.25,69.0, 18.75,69.0, 0.0,37.5" fill="#960296" transform="translate(731.25 189.0)" stroke="black" stroke-width="0"/><polygon points="18.75,6.0 56.25,6.0 75.0,37.5, 56.25,69.0, 18.75,69.0, 0.0,37.5" fill="#960296" transform="translate(731.25 252.0)" stroke="black" stroke-width="0"/><polygon points="18.75,6.0 56.25,6.0 75.0,37.5, 56.25,69.0, 18.75,69.0, 0.0,37.5" fill="#9600a5" transform="translate(731.25 315.0)" stroke="black" stroke-width="0"/><circle cx="37.5" cy="37.5" r="7.5" fill="transparent" transform="translate(731.25 315.0)" stroke="#ffffff" stroke-width="3.75"/><polygon points="18.75,6.0 56.25,6.0 75.0,37.5, 56.25,69.0, 18.75,69.0, 0.0,37.5" fill="#8e0096" transform="translate(731.25 378.0)" stroke="black" stroke-width="0"/><polygon points="18.75,6.0 56.25,6.0 75.0,37.5, 56.25,69.0, 18.75,69.0, 0.0,37.5" fill="#960a96" transform="translate(731.25 441.0)" stroke="black" stroke-width="0"/><circle cx="37.5" cy="37.5" r="7.5" fill="transparent" transform="translate(731.25 441.0)" stroke="#ffffff" stroke-width="3.75"/><polygon points="18.75,6.0 56.25,6.0 75.0,37.5, 56.25,69.0, 18.75,69.0, 0.0,37.5" fill="#960a96" transform="translate(731.25 504.0)" stroke="black" stroke-width="0"/><polygon points="18.75,6.0 56.25,6.0 75.0,37.5, 56.25,69.0, 18.75,69.0, 0.0,37.5" fill="#9e0096" transform="translate(731.25 567.0)" stroke="black" stroke-width="0"/><polygon points="18.75,6.0 56.25,6.0 75.0,37.5, 56.25,69.0, 18.75,69.0, 0.0,37.5" fill="#9600a2" transform="translate(731.25 630.0)" stroke="black" stroke-width="0"/><polygon points="18.75,6.0 56.25,6.0 75.0,37.5, 56.25,69.0, 18.75,69.0, 0.0,37.5" fill="#960e96" transform="translate(731.25 693.0)" stroke="black" stroke-width="0"/><polygon points="18.75,6.0 56.25,6.0 75.0,37.5, 56.25,69.0, 18.75,69.0, 0.0,37.5" fill="#8c0096" transform="translate(787.5 220.5)" stroke="black" stroke-width="0"/><polygon points="18.75,6.0 56.25,6.0 75.0,37.5, 56.25,69.0, 18.75,69.0, 0.0,37.5" fill="#9600a4" transform="translate(787.5 283.5)" stroke="black" stroke-width="0"/><polygon points="18.75,6.0 56.25,6.0 75.0,37.5, 56.25,69.0, 18.75,69.0, 0.0,37.5" fill="#950096" transform="translate(787.5 346.5)" stroke="black" stroke-width="0"/><polygon points="18.75,6.0 56.25,6.0 75.0,37.5, 56.25,69.0, 18.75,69.0, 0.0,37.5" fill="#960a96" transform="translate(787.5 409.5)" stroke="black" stroke-width="0"/><polygon points="18.75,6.0 56.25,6.0 75.0,37.5, 56.25,69.0, 18.75,69.0, 0.0,37.5" fill="#96008d" transform="translate(787.5 472.5)" stroke="black" stroke-width="0"/><polygon points="18.75,6.0 56.25,6.0 75.0,37.5, 56.25,69.0, 18.75,69.0, 0.0,37.5" fill="#9600a1" transform="translate(787.5 535.5)" stroke="black" stroke-width="0"/><polygon points="18.75,6.0 56.25,6.0 75.0,37.5, 56.25,69.0, 18.75,69.0, 0.0,37.5" fill="#960896" transform="translate(787.5 598.5)" stroke="black" stroke-width="0"/><polygon points="18.75,6.0 56.25,6.0 75.0,37.5, 56.25,69.0, 18.75,69.0, 0.0,37.5" fill="#960496" transform="translate(787.5 661.5)" stroke="black" stroke-width="0"/><polygon points="0.0,220.5 393.75,0.0 787.5,220.5 787.5,661.5 393.75,882.0 0.0,661.5" transform="translate(37.5 37.5)" fill="transparent" stroke="black" stroke-width="18.75"/></svg>